HIERARCHY
ROOT root
{
	OFFSET	0	13.1	24.9
	CHANNELS 6  Xposition Yposition Zposition Xrotation Yrotation Zrotation
	JOINT spine_1
	{
		OFFSET	0	9.99999	0
		CHANNELS 3  Xrotation Yrotation Zrotation
		JOINT spine_2
		{
			OFFSET	0	112	-10
			CHANNELS 3  Xrotation Yrotation Zrotation
			JOINT spine_3
			{
				OFFSET	0	206.5	19.3
				CHANNELS 3  Xrotation Yrotation Zrotation
				JOINT spine_4
				{
					OFFSET	0	110.4	14.6
					CHANNELS 3  Xrotation Yrotation Zrotation
					JOINT neck_1
					{
						OFFSET	0	71.8	-50.3
						CHANNELS 3  Xrotation Yrotation Zrotation
						JOINT neck_2
						{
							OFFSET	0	86.2	-25.8
							CHANNELS 3  Xrotation Yrotation Zrotation
							JOINT head_ee
							{
								OFFSET	0	179.8	-8.7
								CHANNELS 3  Xrotation Yrotation Zrotation
								End Site
								{
									OFFSET	1	0	0
								}
							}
						}
					}
					JOINT left_clavicle
					{
						OFFSET	-43.2	22.4	-70.8
						CHANNELS 3  Xrotation Yrotation Zrotation
						JOINT left_shoulder
						{
							OFFSET	-93.9	-5.79999	48.7
							CHANNELS 3  Xrotation Yrotation Zrotation
							JOINT left_elbow
							{
								OFFSET	-291.4	-30.8	15.2
								CHANNELS 3  Xrotation Yrotation Zrotation
								JOINT left_lowarm_twist
								{
									OFFSET	-110.7	-3.89999	13.6
									CHANNELS 3  Xrotation Yrotation Zrotation
									JOINT left_hand
									{
										OFFSET	-110.7	-3.89999	13.6
										CHANNELS 3  Xrotation Yrotation Zrotation
										JOINT left_ee
										{
											OFFSET	-80.8	-5.10001	12.1
											CHANNELS 3  Xrotation Yrotation Zrotation
											End Site
											{
												OFFSET	1	0	0
											}
										}
									}
								}
							}
						}
					}
					JOINT right_clavicle
					{
						OFFSET	43.2	22.4	-70.8
						CHANNELS 3  Xrotation Yrotation Zrotation
						JOINT right_shoulder
						{
							OFFSET	93.9	-5.79999	48.7
							CHANNELS 3  Xrotation Yrotation Zrotation
							JOINT right_elbow
							{
								OFFSET	291.4	-30.8	15.2
								CHANNELS 3  Xrotation Yrotation Zrotation
								JOINT right_lowarm_twist
								{
									OFFSET	110.7	-3.89999	13.6
									CHANNELS 3  Xrotation Yrotation Zrotation
									JOINT right_hand
									{
										OFFSET	110.7	-3.89999	13.6
										CHANNELS 3  Xrotation Yrotation Zrotation
										JOINT right_ee
										{
											OFFSET	80.8	-5.10001	12.1
											CHANNELS 3  Xrotation Yrotation Zrotation
											End Site
											{
												OFFSET	1	0	0
											}
										}
									}
								}
							}
						}
					}
				}
			}
		}
	}
	JOINT left_hip
	{
		OFFSET	-82.8	-127.5	0.300001
		CHANNELS 3  Xrotation Yrotation Zrotation
		JOINT left_knee
		{
			OFFSET	-28.2	-396.7	2.2
			CHANNELS 3  Xrotation Yrotation Zrotation
			JOINT left_ankle
			{
				OFFSET	-11.7	-411.3	35.4
				CHANNELS 3  Xrotation Yrotation Zrotation
				JOINT left_toes
				{
					OFFSET	0	-60	-88.6
					CHANNELS 3  Xrotation Yrotation Zrotation
					JOINT left_foot_ee
					{
						OFFSET	-22.5	-16.5	-42.2
						CHANNELS 3  Xrotation Yrotation Zrotation
						End Site
						{
							OFFSET	1	0	0
						}
					}
				}
			}
		}
	}
	JOINT right_hip
	{
		OFFSET	82.8	-127.5	0.300001
		CHANNELS 3  Xrotation Yrotation Zrotation
		JOINT right_knee
		{
			OFFSET	28.2	-396.7	2.2
			CHANNELS 3  Xrotation Yrotation Zrotation
			JOINT right_ankle
			{
				OFFSET	11.7	-411.3	35.4
				CHANNELS 3  Xrotation Yrotation Zrotation
				JOINT right_toes
				{
					OFFSET	0	-60	-88.6
					CHANNELS 3  Xrotation Yrotation Zrotation
					JOINT right_foot_ee
					{
						OFFSET	22.5	-16.5	-42.2
						CHANNELS 3  Xrotation Yrotation Zrotation
						End Site
						{
							OFFSET	1	0	0
						}
					}
				}
			}
		}
	}
}
MOTION
Frames: 10
Frame Time: 0.02
2928.36273316 701.461 -1851.90465476 -0.833650418823 24.7649195438 -1.41812352578 -0.0740988 -0.150065 -0.476264 -0.0739806 -0.119455 -0.484847 -0.0728843 -0.0142504 -0.499142 -0.0732196 -0.0929008 -0.490628 -9.00776 12.7036 6.90477 -8.96534 19.0841 9.73271 -0.0 0.0 -0.0 10.47 9.79706 19.7653 -8.26943 -20.3581 54.1126 1.55858 -37.6682 0.531649 -0.215559 -0.00764508 0.0264676 0.42146 -12.9227 -2.65558 -0.0 0.0 -0.0 10.4609 6.51352 -20.8372 -23.6532 19.4977 -48.9314 0.438526 12.2563 -0.0470832 45.3127 0.654042 5.6027 0.428169 -11.6516 -7.5416 0.0 0.0 0.0 25.7229 -29.1903 17.2287 -35.5686 -0.209173 5.36801 15.3302 10.6562 -2.13908 -8.64187 0.0 0.0 -0.0 0.0 -0.0 29.2412 12.4356 7.88975 -67.0987 3.01326 -9.2586 0.0738316 -29.5162 0.0115794 -5.218 0.0 0.0 0.0 0.0 0.0 
2908.9825445 698.253 -1861.72916092 0.244713022827 24.8270764598 -2.9303500417 -0.159048 -0.177224 -0.284416 -0.159017 -0.158767 -0.295116 -0.158158 -0.0923067 -0.322149 -0.158275 -0.142025 -0.303528 -8.80379 13.2672 6.92522 -8.76203 20.0895 9.85474 -0.0 0.0 -0.0 10.4892 9.15427 19.8777 -6.98124 -20.5754 53.5183 1.68563 -39.8589 0.611206 0.0591439 0.00208018 -0.00726696 0.229794 -13.8265 -4.33486 -0.0 0.0 -0.0 10.3577 6.12113 -20.6083 -24.2759 19.052 -49.0916 0.371726 10.4339 -0.0339407 45.924 0.6927 5.67071 0.00674696 -16.8183 -6.89298 0.0 0.0 0.0 20.6149 -24.3364 16.68 -33.6817 -0.11447 5.09407 24.7225 6.71746 -3.29848 -11.6681 0.0 0.0 -0.0 0.0 -0.0 33.3916 12.2196 8.41017 -70.946 3.49036 -9.61262 -2.63029 -28.8913 -0.413055 -6.63651 0.0 0.0 0.0 0.0 0.0 
2890.24312119 693.432 -1868.15490317 0.499283788399 25.4836077859 -4.22725621338 -0.215488 -0.18787 -0.112696 -0.215499 -0.180318 -0.124422 -0.215101 -0.14954 -0.160103 -0.215095 -0.172949 -0.134477 -8.68987 13.1988 7.13601 -8.63321 19.789 10.0249 -0.0 0.0 -0.0 10.2134 8.32791 19.442 -5.50952 -20.8566 52.626 1.88015 -42.9606 0.739922 0.820167 0.028175 -0.100959 0.162843 -15.611 -5.54911 -0.0 0.0 -0.0 10.2602 5.86609 -20.394 -24.7947 18.6607 -48.8537 0.347903 9.77856 -0.0297603 46.8817 0.754724 5.77644 -0.225078 -20.4876 -6.91371 0.0 0.0 0.0 17.3759 -19.0239 15.2715 -29.3429 0.0686745 4.4536 31.5798 5.26322 -4.05489 -14.2374 0.0 0.0 -0.0 0.0 -0.0 34.8596 12.3697 9.33917 -69.5067 3.30909 -9.48391 -4.63814 -28.4288 -0.728846 -9.12235 0.0 0.0 0.0 0.0 0.0 
2876.88980784 699.205 -1878.74394969 0.270881052068 25.5540552072 -3.78771998545 -0.267063 -0.20086 -0.0243831 -0.267085 -0.198901 -0.0371149 -0.266963 -0.186292 -0.0789588 -0.266918 -0.196424 -0.0485464 -8.61348 13.1777 7.34587 -8.54416 19.5858 10.2117 -0.0 0.0 -0.0 10.2415 7.66777 19.564 -4.77976 -20.9842 52.3176 2.07153 -45.7347 0.873737 0.877481 0.03009 -0.108029 0.138882 -16.8686 -6.24707 -0.0 0.0 -0.0 9.99378 5.54665 -19.817 -25.2038 18.4443 -49.8518 0.375018 10.5242 -0.0345395 47.7659 0.813551 5.87312 -0.312561 -23.0919 -7.40814 0.0 0.0 0.0 15.91 -14.3149 15.0502 -23.0146 0.247671 3.49939 36.8559 4.98433 -4.57518 -16.1371 0.0 0.0 -0.0 0.0 -0.0 36.2623 11.9466 9.00847 -66.5622 2.94867 -9.20674 -6.03827 -27.9906 -0.94848 -11.3716 0.0 0.0 0.0 0.0 0.0 
2833.1251123 693.325 -1892.21631645 -2.52523382817 29.2786584581 -1.69919250945 0.255621 -0.154149 -0.11781 0.255617 -0.14634 -0.12738 0.25595 -0.116992 -0.15477 0.255944 -0.139967 -0.134351 -6.52568 12.9418 7.78328 -6.36756 18.3502 10.3015 -0.0 0.0 -0.0 9.38148 3.05778 18.2381 -2.2305 -21.6828 50.2401 2.63549 -52.5402 1.30101 1.57477 0.0528175 -0.194189 0.11423 -18.6254 -7.16053 -0.0 0.0 -0.0 9.37508 5.22251 -18.4953 -25.5362 16.664 -51.7292 0.437747 12.2352 -0.0469179 49.8768 0.960002 6.10024 -0.206106 -23.8319 -8.30759 0.0 0.0 0.0 6.74606 -7.45916 14.741 -4.66002 0.163621 0.69626 40.6867 8.15534 -4.9247 -15.3241 0.0 0.0 -0.0 0.0 -0.0 43.1502 13.2012 4.39442 -56.9362 1.87839 -8.17932 -11.0688 -26.3072 -1.73369 -15.6241 0.0 0.0 0.0 0.0 0.0 
2812.73904588 693.735 -1887.47473511 -2.2197926777 33.346435811 -1.44588476723 -0.0291995 0.0190884 -0.156503 -0.0291863 0.0290084 -0.154971 -0.0292614 0.0610062 -0.145382 -0.0292888 0.0372802 -0.153192 -4.39253 12.8464 6.8694 -4.20799 18.3584 9.11263 -0.0 0.0 -0.0 9.25776 1.67727 18.0614 -2.6024 -20.4536 49.4849 3.26022 -58.2215 1.81576 0.555692 0.0192477 -0.06836 0.182743 -19.0988 -6.90357 -0.0 0.0 -0.0 9.24662 5.07067 -18.2223 -25.05 14.6022 -54.1209 0.451089 12.5964 -0.0497866 50.9093 1.03467 6.20935 0.121303 -22.7338 -9.80874 0.0 0.0 0.0 2.10243 -6.63854 15.576 -2.10613 0.0809707 0.313059 40.9052 10.2153 -4.95677 -11.9694 0.0 0.0 -0.0 0.0 -0.0 46.8491 13.2749 0.731436 -51.8663 1.38857 -7.57088 -15.9181 -25.9474 -2.49987 -18.5547 0.0 0.0 0.0 0.0 0.0 
2796.01257527 682.02 -1896.60723091 -3.1546095611 35.0252925268 -0.304707081445 0.239247 -0.0621316 -0.0644772 0.239247 -0.0579029 -0.0683001 0.239318 -0.0425839 -0.0787671 0.239314 -0.0544892 -0.0710533 -2.84449 13.6598 6.18824 -2.61255 20.0198 8.35068 -0.0 0.0 -0.0 8.54566 0.483327 16.6725 -1.61146 -19.6855 49.3535 3.8342 -62.2164 2.31424 0.869189 0.0298132 -0.107006 0.0334261 -16.6594 -6.86712 -0.0 0.0 -0.0 8.65774 4.06919 -16.9795 -25.8766 15.636 -54.9897 0.515627 14.3287 -0.0648132 50.9019 1.03413 6.20857 0.167417 -21.7809 -9.73427 0.0 0.0 0.0 1.42632 -5.80793 13.2804 -7.3584 0.23229 1.10463 42.2957 15.5969 -5.14304 -6.77924 0.0 0.0 -0.0 0.0 -0.0 45.0023 14.1355 -0.420623 -41.8582 0.589197 -6.25643 -17.5602 -22.2974 -2.71276 -22.7806 0.0 0.0 0.0 0.0 0.0 
2779.39551838 680.75 -1908.0394896 -3.61148973453 36.8041044424 1.11708990975 0.35352 -0.00599301 -0.0946011 0.353525 3.88442e-05 -0.0947907 0.353527 0.0193886 -0.0927867 0.353514 0.00449137 -0.0946843 -2.02618 14.0275 6.00806 -1.75957 20.6381 8.11015 -0.0 0.0 -0.0 8.23859 0.770971 16.049 -1.21958 -19.0205 49.563 4.38079 -65.2389 2.80453 -0.20757 -0.00735988 0.0254872 -0.085938 -14.7011 -6.83921 -0.0 0.0 -0.0 8.96313 2.96173 -17.6027 -26.229 16.6662 -55.5973 0.480781 13.3965 -0.056464 52.1614 1.12786 6.33986 0.224392 -17.5863 -8.52499 0.0 0.0 0.0 2.07116 -4.10079 11.7942 -12.3758 0.308564 1.8705 41.9755 19.0211 -5.18384 -1.4423 0.0 0.0 -0.0 0.0 -0.0 44.0094 14.3528 -1.23057 -34.9982 0.179594 -5.28552 -14.1664 -17.5955 -2.14762 -28.2745 0.0 0.0 0.0 0.0 0.0 
2780.67375208 680.75 -1910.15552043 -3.59720410273 36.499308484 1.0931589241 0.35352 -0.00599301 -0.0946011 0.353525 3.88442e-05 -0.0947907 0.353527 0.0193886 -0.0927867 0.353514 0.00449137 -0.0946843 -2.02618 14.0275 6.00806 -1.75957 20.6381 8.11015 -0.0 0.0 -0.0 8.23859 0.770971 16.049 -1.21958 -19.0205 49.563 4.38079 -65.2389 2.80453 -0.20757 -0.00735988 0.0254872 -0.085938 -14.7011 -6.83921 -0.0 0.0 -0.0 8.96313 2.96173 -17.6027 -26.229 16.6662 -55.5973 0.480781 13.3965 -0.056464 52.1614 1.12786 6.33986 0.224392 -17.5863 -8.52499 0.0 0.0 0.0 2.07116 -4.10079 11.7942 -12.3758 0.308564 1.8705 41.9755 19.0211 -5.18384 -1.4423 0.0 0.0 -0.0 0.0 -0.0 44.0094 14.3528 -1.23057 -34.9982 0.179594 -5.28552 -14.1664 -17.5955 -2.14762 -28.2745 0.0 0.0 0.0 0.0 0.0 
2753.02101908 682.256 -1917.71163067 -5.02245958019 38.7777028135 1.91085260028 0.215812 0.0516532 -0.131833 0.21582 0.0599374 -0.128279 0.215684 0.0851346 -0.113137 0.215673 0.0661982 -0.125163 -2.71951 14.3886 7.6192 -2.43755 20.1953 9.91364 -0.0 0.0 -0.0 7.7592 1.01841 15.089 -1.21718 -19.6187 50.1861 4.89745 -67.5749 3.2781 -1.41104 -0.0518494 0.172728 -0.291661 -11.0636 -6.68334 -0.0 0.0 -0.0 9.39328 2.17558 -18.4797 -25.5138 18.591 -54.7163 0.438155 12.2462 -0.0470043 54.4673 1.30686 6.57479 0.564183 -9.18651 -7.46221 0.0 0.0 0.0 3.21461 -2.60905 10.3229 -15.8223 0.321992 2.39905 39.3971 23.3911 -5.06047 3.63985 -0.0 -0.0 -0.0 0.0 -0.0 42.6391 15.491 -1.39025 -19.3978 -0.302317 -2.9472 -8.77479 -9.27726 -1.306 -36.7401 0.0 0.0 0.0 0.0 0.0 
